<svg xmlns="http://www.w3.org/2000/svg" width="35.845" height="31.96" viewBox="0 0 35.845 31.96">
  <g id="all_icon" transform="translate(0.025)">
    <path id="Path_770" data-name="Path 770" d="M35.361,14.262,28.113,1.7A3.431,3.431,0,0,0,25.146,0h-14.5A3.416,3.416,0,0,0,7.682,1.718L.434,14.262a3.421,3.421,0,0,0,0,3.422L7.682,30.243a3.443,3.443,0,0,0,2.967,1.718h14.5a3.416,3.416,0,0,0,2.967-1.718l6.038-10.45.508-.885.4-.7.3-.508A3.446,3.446,0,0,0,35.361,14.262Z" fill="#c7ce14"/>
    <path id="Path_771" data-name="Path 771" d="M92.193,102.083l-6.038,10.45a3.443,3.443,0,0,1-2.967,1.718H79.31L66.7,101.64V96.7l2.59-1.666,3.462.494,1.7.26,2.082,2.082,2.039-1.519L80.923,94.6l4.945,1.158Z" transform="translate(-58.042 -82.29)" fill="#9b9b0f"/>
    <path id="Path_772" data-name="Path 772" d="M60.611,86.084a4.448,4.448,0,0,1,1.093.1c.026.013.065.013.091.026a5.16,5.16,0,0,1,2.238,1.21c.351.312.69.638,1.054.95.039.039.091.078.13.117-.468.39-.911.768-1.366,1.158-.377-.325-.729-.638-1.08-.95a3.011,3.011,0,0,0-5,1.47,3,3,0,0,0,4.854,2.993l6.6-5.856a4.491,4.491,0,0,1,2.056-1.08A4.906,4.906,0,0,1,76.5,88.361a4.43,4.43,0,0,1,.56,1.327c.065.234.091.468.143.7v.95c-.013.052-.039.091-.052.143a4.782,4.782,0,0,1-3.5,3.982,4.721,4.721,0,0,1-3.266-.286,11.037,11.037,0,0,1-2.3-1.809c-.065-.052-.117-.1-.182-.156.442-.39.872-.768,1.314-1.145.39.325.768.638,1.119.963a2.938,2.938,0,0,0,2.473.794,2.982,2.982,0,0,0,2.525-2.3,3,3,0,0,0-4.88-2.941l-6.6,5.856a4.874,4.874,0,0,1-5.374.664,5.04,5.04,0,0,1-2.3-2.668,7.9,7.9,0,0,1-.273-1.093v-.95c.013-.052.039-.1.052-.143a4.616,4.616,0,0,1,2.993-3.813,4.681,4.681,0,0,1,1.34-.312A1.476,1.476,0,0,1,60.611,86.084Z" transform="translate(-48.647 -74.879)" fill="#fff"/>
  </g>
</svg>
