<svg xmlns="http://www.w3.org/2000/svg" width="23.969" height="22.159" viewBox="0 0 23.969 22.159">
  <g id="attachment_icon" transform="translate(-339.999 -46.993)">
    <g id="Group_787" data-name="Group 787" transform="translate(339.999 46.993)">
      <path id="Path_812" data-name="Path 812" d="M26.6-463.893a6.523,6.523,0,0,0-1.507.52c-.82.421-1.027.612-7.406,6.979-3.452,3.446-6.436,6.459-6.627,6.7a4.874,4.874,0,0,0-.889,1.72,5.423,5.423,0,0,0-.035,2.528,4.85,4.85,0,0,0,3.186,3.383,3.449,3.449,0,0,0,1.328.214,4.1,4.1,0,0,0,1.3-.1,5.087,5.087,0,0,0,1.818-.866c.208-.156,2.326-2.24,4.71-4.635l4.335-4.346.242-.491a4.722,4.722,0,0,0,.323-.895,3.553,3.553,0,0,0-3.492-4.3,3.455,3.455,0,0,0-1.616.381c-.416.2-.548.317-3.781,3.544l-3.348,3.348.635.635.635.635,3.2-3.2c2.834-2.829,3.244-3.215,3.544-3.354a1.711,1.711,0,0,1,2.269.779,1.3,1.3,0,0,1,.191.774c0,.791.2.554-4.549,5.311-2.459,2.465-4.393,4.353-4.584,4.485a2.724,2.724,0,0,1-1.662.485,2.662,2.662,0,0,1-.941-.133,3.028,3.028,0,0,1-1.7-4.3c.156-.3,1.074-1.247,6.477-6.661,3.464-3.469,6.454-6.431,6.644-6.575a3.959,3.959,0,0,1,2.569-.848,3.614,3.614,0,0,1,1.876.427,4.205,4.205,0,0,1,2.286,2.857,3.492,3.492,0,0,1,.092,1.154,4.051,4.051,0,0,1-.779,2.309c-.11.156-2.557,2.644-5.432,5.53l-5.23,5.236.635.635.635.635,5.426-5.438c4.947-4.958,5.455-5.484,5.709-5.923a6.169,6.169,0,0,0,.82-4.035,6.1,6.1,0,0,0-4.762-5.1A7.4,7.4,0,0,0,26.6-463.893Z" transform="translate(-9.999 464.007)" fill="#707070"/>
    </g>
  </g>
</svg>
