<svg xmlns="http://www.w3.org/2000/svg" width="35.845" height="31.96" viewBox="0 0 35.845 31.96">
  <g id="challenge" transform="translate(0.025)">
    <path id="Path_767" data-name="Path 767" d="M35.361,14.262,28.113,1.7A3.431,3.431,0,0,0,25.146,0h-14.5A3.416,3.416,0,0,0,7.682,1.718L.434,14.262a3.421,3.421,0,0,0,0,3.422L7.682,30.243a3.443,3.443,0,0,0,2.967,1.718h14.5a3.416,3.416,0,0,0,2.967-1.718l6.546-11.334.4-.7.3-.508A3.446,3.446,0,0,0,35.361,14.262Z" transform="translate(0)" fill="#3983b5"/>
    <path id="Path_768" data-name="Path 768" d="M107.47,83.272l-.4.7-6.546,11.335a3.443,3.443,0,0,1-2.967,1.718H94.886l-8.94-8.94,2.915-2.433L83.2,79.992,99.011,74.8Z" transform="translate(-72.395 -65.066)" fill="#255d82"/>
    <path id="Path_769" data-name="Path 769" d="M70.8,70.665V69.507h3.475V68.7H84.763v.807h3.462v1.158c-.1.495-.182.976-.3,1.47-.521,2.082-1.978,4.06-4.88,3.891a.576.576,0,0,0-.39.221,5.323,5.323,0,0,1-1.874,1.523c-.091.039-.208.143-.208.221-.013.781-.013,1.562-.013,2.381h2.512v1.549l.807.039v.82H75.172v-.82l.82-.039V80.347h2.486c0-.807.013-1.562-.013-2.316a.376.376,0,0,0-.208-.26,4.886,4.886,0,0,1-1.835-1.5A.684.684,0,0,0,75.875,76a8.007,8.007,0,0,1-1.679-.208,4.437,4.437,0,0,1-2.915-3.11A20.687,20.687,0,0,1,70.8,70.665Zm4.7,4.19a10.873,10.873,0,0,1-1.171-4.164H72C72.205,73.229,73.559,74.868,75.5,74.855Zm8.042,0c2.134.065,3.331-2.03,3.475-4.151H84.7A11.242,11.242,0,0,1,83.54,74.855Z" transform="translate(-61.608 -59.76)" fill="#fff"/>
  </g>
</svg>
