<svg xmlns="http://www.w3.org/2000/svg" width="16.581" height="16.581" viewBox="0 0 16.581 16.581">
  <g id="copy_link_icon" transform="translate(-620.207 119.25)">
    <path id="Path_816" data-name="Path 816" d="M626.688-119.25a3.4,3.4,0,0,1,.338.091,2.367,2.367,0,0,1,.72.456c.259.228.508.467.762.7.006.005.011.012.023.027h-.065c-.252,0-.5,0-.757.009a2.822,2.822,0,0,0-.66.12.076.076,0,0,1-.08-.018.439.439,0,0,0-.3-.112q-1.938,0-3.877,0a1.268,1.268,0,0,0-.953.394,1.254,1.254,0,0,0-.355.853c0,.018,0,.035,0,.053q0,4.442,0,8.885a1.274,1.274,0,0,0,.8,1.2,1.171,1.171,0,0,0,.44.09h1.942v1.272l-.055,0c-.617,0-1.234,0-1.852,0a2.554,2.554,0,0,1-2.39-1.655,2.45,2.45,0,0,1-.162-.873q0-4.487,0-8.974a2.452,2.452,0,0,1,.706-1.732,2.513,2.513,0,0,1,1.42-.758c.086-.015.173-.024.26-.035Z" transform="translate(0)" fill="#fff"/>
    <path id="Path_817" data-name="Path 817" d="M983.957,24.255q0-2.4,0-4.8a2.555,2.555,0,0,1,2.178-2.507,2.8,2.8,0,0,1,.414-.026c1.219,0,2.437,0,3.656,0a1.61,1.61,0,0,1,.923.28,5.307,5.307,0,0,1,.772.639c.286.279.565.565.85.846.441.434.885.865,1.325,1.3a10.22,10.22,0,0,1,.9.983,2.07,2.07,0,0,1,.4.735,1.348,1.348,0,0,1,.048.336q0,3.5,0,6.991a2.553,2.553,0,0,1-1.786,2.44,2.427,2.427,0,0,1-.749.118c-2.134,0-4.268,0-6.4,0a2.561,2.561,0,0,1-2.526-2.272,2.033,2.033,0,0,1-.013-.236Q983.956,26.667,983.957,24.255Zm1.273,0q0,2.4,0,4.792a1.2,1.2,0,0,0,.026.245,1.268,1.268,0,0,0,1.274,1.024h6.328a1.3,1.3,0,0,0,.256-.022,1.267,1.267,0,0,0,1.043-1.274q0-3.482,0-6.964a.939.939,0,0,0-.021-.208.52.52,0,0,0-.4-.384,2.12,2.12,0,0,0-.613-.072c-.5,0-1,0-1.494,0a.637.637,0,0,1-.66-.659c0-.3,0-.6,0-.9s-.006-.613-.017-.92a.947.947,0,0,0-.125-.467.451.451,0,0,0-.409-.238q-1.938,0-3.877,0c-.058,0-.116,0-.173.009a1.274,1.274,0,0,0-1.139,1.254Q985.23,21.856,985.23,24.252Z" transform="translate(-358.647 -134.26)" fill="#fff"/>
    <path id="Path_818" data-name="Path 818" d="M1315.574,431.78a1.214,1.214,0,0,0-.973-.141l.142-.148c.2-.2.394-.409.6-.61a1.555,1.555,0,0,1,1.371-.477,1.408,1.408,0,0,1,1.17.958,1.43,1.43,0,0,1-.131,1.243,1.775,1.775,0,0,1-.307.4q-.715.714-1.428,1.428a1.6,1.6,0,0,1-.955.486,1.448,1.448,0,0,1-1.231-.4.391.391,0,0,1-.02-.553.383.383,0,0,1,.555-.021.74.74,0,0,0,1-.011c.2-.173.379-.364.566-.549l.962-.949a.89.89,0,0,0,.271-.542.68.68,0,0,0-.539-.717.8.8,0,0,0-.725.262C1315.788,431.549,1315.683,431.665,1315.574,431.78Z" transform="translate(-683.768 -541.927)" fill="#fff"/>
    <path id="Path_819" data-name="Path 819" d="M1170.854,562.945a1.27,1.27,0,0,0,.974.138c-.009.011-.018.023-.029.035q-.291.3-.583.6a1.659,1.659,0,0,1-.987.5,1.47,1.47,0,0,1-1.638-1.205,1.505,1.505,0,0,1,.337-1.208,5.85,5.85,0,0,1,.476-.5c.344-.343.691-.682,1.037-1.023a1.627,1.627,0,0,1,.825-.464,1.438,1.438,0,0,1,1.339.374.389.389,0,0,1,.025.548.4.4,0,0,1-.568.036.719.719,0,0,0-.958-.025,2.869,2.869,0,0,0-.251.231q-.61.6-1.217,1.2a.9.9,0,0,0-.261.5.678.678,0,0,0,.555.753.812.812,0,0,0,.708-.268C1170.715,563.1,1170.785,563.019,1170.854,562.945Z" transform="translate(-540.673 -669.512)" fill="#fff"/>
  </g>
</svg>
