<svg xmlns="http://www.w3.org/2000/svg" width="19" height="17.86" viewBox="0 0 19 17.86">
  <g id="domains_icon" transform="translate(-23 -301.14)">
    <g id="surface1_1_" transform="translate(23 301.14)">
      <path id="Path_804" data-name="Path 804" d="M.76,0A.762.762,0,0,0,0,.76V17.1a.762.762,0,0,0,.76.76H5.32a.762.762,0,0,0,.76-.76V.76A.762.762,0,0,0,5.32,0ZM6.84,0V1.9h9.88a.359.359,0,0,1,.38.38V11.4a.359.359,0,0,1-.38.38H6.84v3.04h11.4a.762.762,0,0,0,.76-.76V.76A.762.762,0,0,0,18.24,0ZM3.04,14.44a.76.76,0,1,1-.76.76A.762.762,0,0,1,3.04,14.44Zm5.7.76v.76h-.8a1.112,1.112,0,0,0-1.1,1.14v.76h7.6V17.1a1.112,1.112,0,0,0-1.1-1.14h-.8V15.2Z" fill="#515151"/>
    </g>
    <path id="Path_805" data-name="Path 805" d="M30.384,310.907,33.03,308.1,34.1,310.2l5.043-5.87" fill="none" stroke="#707070" stroke-width="1"/>
  </g>
</svg>
