<svg id="flag_icon" xmlns="http://www.w3.org/2000/svg" width="14.327" height="21" viewBox="0 0 14.327 21">
  <path id="Path_785" data-name="Path 785" d="M23.337,17.525c-4.375,3.278-8.762-3.278-13.137,0V9.335c4.375-3.278,8.762,3.278,13.137,0Z" transform="translate(-9.01 -7.41)" fill="#676767"/>
  <path id="Path_786" data-name="Path 786" d="M1.592,29.833h0a.289.289,0,0,1-.292-.292V10.292A.289.289,0,0,1,1.592,10h0a.289.289,0,0,1,.292.292v19.25A.3.3,0,0,1,1.592,29.833Z" transform="translate(-1.148 -8.833)" fill="#676767"/>
  <circle id="Ellipse_103" data-name="Ellipse 103" cx="0.443" cy="0.443" r="0.443" transform="translate(0 0)" fill="#676767"/>
</svg>
