<svg xmlns="http://www.w3.org/2000/svg" width="16.08" height="20.315" viewBox="0 0 16.08 20.315">
  <g id="Group_851" data-name="Group 851" transform="translate(11.56 -209.376)">
    <path id="Path_841" data-name="Path 841" d="M-5.22,215.6a7.142,7.142,0,0,1-.059,1.124,10.312,10.312,0,0,0-.008,2.288.264.264,0,0,1-.194.324q-2.049.844-4.093,1.7c-.178.075-.265.054-.349-.131a17.036,17.036,0,0,1-1.633-6.633,8.33,8.33,0,0,1,.38-2.916,3.942,3.942,0,0,1,.559-1.11,1.915,1.915,0,0,1,2.761-.491A5.278,5.278,0,0,1-6,212.075,8.9,8.9,0,0,1-5.22,215.6Z" fill="#98b243"/>
    <path id="Path_842" data-name="Path 842" d="M186.033,296.283a16.985,16.985,0,0,1-1.485,6.526c-.24.557-.241.559-.791.334-1.241-.509-2.48-1.025-3.724-1.526a.363.363,0,0,1-.272-.436,19.565,19.565,0,0,0-.049-2.925,8.149,8.149,0,0,1,1.311-4.94,4.227,4.227,0,0,1,1.446-1.41,1.88,1.88,0,0,1,2.563.51,4.692,4.692,0,0,1,.854,2.13A10.135,10.135,0,0,1,186.033,296.283Z" transform="translate(-181.512 -78.043)" fill="#98b243"/>
    <path id="Path_843" data-name="Path 843" d="M163.069,507.258a7.327,7.327,0,0,1,.229-1.4c.158-.651.323-1.3.467-1.956.045-.2.118-.222.294-.15q1.923.779,3.852,1.543c.162.064.241.127.138.313a10.892,10.892,0,0,1-1.824,2.563,3.516,3.516,0,0,1-.916.68,1.5,1.5,0,0,1-2.189-1.084A1.935,1.935,0,0,1,163.069,507.258Z" transform="translate(-165.724 -279.33)" fill="#98b243"/>
    <path id="Path_844" data-name="Path 844" d="M36.6,424.8a2.005,2.005,0,0,1-.17.869,1.456,1.456,0,0,1-2.087.717,4.712,4.712,0,0,1-1.474-1.308,13.279,13.279,0,0,1-1.188-1.8c-.112-.2-.06-.273.131-.354,1.266-.533,2.528-1.076,3.792-1.614.115-.049.24-.129.283.089.19.982.513,1.935.663,2.926C36.576,424.479,36.585,424.64,36.6,424.8Z" transform="translate(-40.982 -201.073)" fill="#98b243"/>
  </g>
</svg>
