<svg xmlns="http://www.w3.org/2000/svg" width="18.44" height="18.416" viewBox="0 0 18.44 18.416">
  <path id="help_icon" d="M9.179,18.4A9.242,9.242,0,0,1-.031,9.034,9.352,9.352,0,0,1,9.275-.007a9.314,9.314,0,0,1,9.132,9.215A9.211,9.211,0,0,1,9.179,18.4ZM6.467,10.333c.187-.113.339-.226.509-.309a5.761,5.761,0,0,1,.813-.343c.339-.1.4-.043.326.3-.243,1.091-.509,2.182-.765,3.269a5.674,5.674,0,0,0-.243,1.665.835.835,0,0,0,.982.887,1.654,1.654,0,0,0,.256-.03A6.787,6.787,0,0,0,10.766,14.6c.417-.3.8-.656,1.213-1-.148-.2-.269-.361-.4-.535a1.579,1.579,0,0,1-.209.148,9.72,9.72,0,0,1-1.03.543c-.343.135-.456.017-.4-.343a2.427,2.427,0,0,1,.043-.256c.313-1.23.643-2.46.939-3.695a5.848,5.848,0,0,0,.152-1.2.6.6,0,0,0-.7-.656,3.946,3.946,0,0,0-.643.083A6.757,6.757,0,0,0,7.362,8.838c-.417.3-.817.613-1.234.93C6.249,9.972,6.354,10.146,6.467,10.333ZM9.475,6a1.72,1.72,0,0,0,1.613-1.013,1.247,1.247,0,0,0-1.039-1.83A1.745,1.745,0,0,0,8.305,4.3,1.191,1.191,0,0,0,9.475,6Z" transform="translate(0.033 0.008)" fill="#515151"/>
</svg>
