<svg xmlns="http://www.w3.org/2000/svg" viewBox="0 0 15 15">
  <defs>
    <style>
      .cls-1 {
        fill: #98b243;
      }
    </style>
  </defs>
  <g id="like" transform="translate(-18.529 -206.012)">
    <g id="g2155" transform="translate(18.529 206.013)">
      <g id="g2099" transform="translate(0)">
        <path id="path2097" class="cls-1" d="M17.3,8.383a2.465,2.465,0,0,0,.478-1.469A2.13,2.13,0,0,0,17.039,5.3a2.506,2.506,0,0,0-1.758-.685H13.562a3.715,3.715,0,0,0,.469-1.731,3.493,3.493,0,0,0-.342-1.677,2.073,2.073,0,0,0-1-.915A3.571,3.571,0,0,0,11.219,0a1.294,1.294,0,0,0-.879.334,2.135,2.135,0,0,0-.605.974q-.186.595-.3,1.14a1.473,1.473,0,0,1-.347.771Q8.611,3.7,8.045,4.372a8.239,8.239,0,0,1-1.338,1.4H4.031a1.258,1.258,0,0,0-.884.338,1.071,1.071,0,0,0-.366.816v5.769a1.07,1.07,0,0,0,.366.816,1.257,1.257,0,0,0,.884.338H6.843a7.7,7.7,0,0,1,1.348.361q1.2.388,2.114.59a8.507,8.507,0,0,0,1.851.2h1.26a3.271,3.271,0,0,0,2.217-.726,2.453,2.453,0,0,0,.83-1.979,2.414,2.414,0,0,0,.586-1.6,2.52,2.52,0,0,0-.029-.388,2.436,2.436,0,0,0,.371-1.3,2.184,2.184,0,0,0-.088-.622ZM5.1,12.521a.649.649,0,0,1-.879,0,.536.536,0,0,1,0-.811.649.649,0,0,1,.879,0,.536.536,0,0,1,0,.811ZM16.321,7.654q-.21.415-.523.424a1.19,1.19,0,0,1,.244.428,1.509,1.509,0,0,1,.1.5,1.378,1.378,0,0,1-.517,1.072,1.173,1.173,0,0,1,.176.622,1.424,1.424,0,0,1-.171.663,1.04,1.04,0,0,1-.464.473,2.852,2.852,0,0,1,.049.5q0,1.505-1.875,1.505H12.156a11.573,11.573,0,0,1-3.34-.658q-.049-.018-.283-.095l-.347-.113q-.112-.036-.342-.1t-.371-.1q-.142-.031-.322-.059a2.128,2.128,0,0,0-.308-.027H6.531V6.923h.312a.9.9,0,0,0,.347-.081A1.666,1.666,0,0,0,7.581,6.6q.2-.162.376-.32a5.3,5.3,0,0,0,.391-.4q.215-.239.337-.383t.308-.37q.185-.225.225-.27.537-.613.752-.82a2.244,2.244,0,0,0,.581-.987q.181-.6.3-1.131a1.444,1.444,0,0,1,.371-.766,1.483,1.483,0,0,1,1.25.424,2.209,2.209,0,0,1,.312,1.307,3.471,3.471,0,0,1-.469,1.447,3.468,3.468,0,0,0-.469,1.438h3.437a1.253,1.253,0,0,1,.869.347,1.062,1.062,0,0,1,.381.807,1.665,1.665,0,0,1-.21.73Z" transform="translate(-2.781)"/>
      </g>
    </g>
  </g>
</svg>
