<svg xmlns="http://www.w3.org/2000/svg" width="19.381" height="19.381" viewBox="0 0 19.381 19.381">
  <g id="Group_861" data-name="Group 861" transform="translate(-375 -411)">
    <path id="path2097" d="M5.772,16.178a.839.839,0,0,1-1.136,0,.693.693,0,0,1,0-1.048.839.839,0,0,1,1.136,0,.693.693,0,0,1,0,1.048Zm14.5-6.289q-.271.536-.675.547a1.538,1.538,0,0,1,.316.553,1.95,1.95,0,0,1,.126.646,1.78,1.78,0,0,1-.668,1.386,1.515,1.515,0,0,1,.227.8,1.839,1.839,0,0,1-.221.856,1.344,1.344,0,0,1-.6.611,3.685,3.685,0,0,1,.063.652q0,1.945-2.423,1.945H14.895a14.953,14.953,0,0,1-4.316-.85q-.063-.023-.366-.122l-.448-.145q-.145-.047-.442-.134t-.479-.128q-.183-.041-.416-.076a2.75,2.75,0,0,0-.4-.035h-.4V8.945h.4a1.159,1.159,0,0,0,.448-.1,2.153,2.153,0,0,0,.5-.315q.259-.21.486-.414a6.854,6.854,0,0,0,.5-.512q.278-.309.435-.5t.4-.478q.24-.291.29-.349.694-.792.971-1.06a2.9,2.9,0,0,0,.751-1.275q.234-.775.385-1.462a1.865,1.865,0,0,1,.48-.99,1.917,1.917,0,0,1,1.615.547,2.855,2.855,0,0,1,.4,1.689A4.485,4.485,0,0,1,15.1,5.6a4.48,4.48,0,0,0-.605,1.858h4.441a1.619,1.619,0,0,1,1.123.448,1.372,1.372,0,0,1,.492,1.042,2.151,2.151,0,0,1-.271.944Z" transform="translate(372.219 411)" fill="#98b243"/>
    <g id="like" transform="translate(435 394)">
      <g id="g2155" transform="translate(-60 17)">
        <g id="g2099">
          <path id="path2097-2" data-name="path2097" d="M21.544,10.832a3.185,3.185,0,0,0,.618-1.9A2.752,2.752,0,0,0,21.2,6.848a3.237,3.237,0,0,0-2.271-.885H16.711a4.8,4.8,0,0,0,.606-2.236,4.513,4.513,0,0,0-.442-2.166A2.678,2.678,0,0,0,15.588.378,4.614,4.614,0,0,0,13.683,0a1.672,1.672,0,0,0-1.136.431,2.759,2.759,0,0,0-.782,1.258q-.24.768-.385,1.473a1.9,1.9,0,0,1-.448,1q-.618.617-1.35,1.491A10.646,10.646,0,0,1,7.853,7.454H4.4a1.625,1.625,0,0,0-1.142.437,1.384,1.384,0,0,0-.473,1.054V16.4a1.383,1.383,0,0,0,.473,1.054A1.624,1.624,0,0,0,4.4,17.89H8.03a9.945,9.945,0,0,1,1.741.466q1.552.5,2.732.763a10.992,10.992,0,0,0,2.391.262h1.628a4.227,4.227,0,0,0,2.864-.938,3.169,3.169,0,0,0,1.073-2.557,3.119,3.119,0,0,0,.757-2.073,3.256,3.256,0,0,0-.038-.5,3.148,3.148,0,0,0,.48-1.677,2.822,2.822,0,0,0-.114-.8ZM5.772,16.178a.839.839,0,0,1-1.136,0,.693.693,0,0,1,0-1.048.839.839,0,0,1,1.136,0,.693.693,0,0,1,0,1.048Zm14.5-6.289q-.271.536-.675.547a1.538,1.538,0,0,1,.316.553,1.95,1.95,0,0,1,.126.646,1.78,1.78,0,0,1-.668,1.386,1.515,1.515,0,0,1,.227.8,1.839,1.839,0,0,1-.221.856,1.344,1.344,0,0,1-.6.611,3.685,3.685,0,0,1,.063.652q0,1.945-2.423,1.945H14.895a14.953,14.953,0,0,1-4.316-.85q-.063-.023-.366-.122l-.448-.145q-.145-.047-.442-.134t-.479-.128q-.183-.041-.416-.076a2.75,2.75,0,0,0-.4-.035h-.4V8.945h.4a1.159,1.159,0,0,0,.448-.1,2.153,2.153,0,0,0,.5-.315q.259-.21.486-.414a6.854,6.854,0,0,0,.5-.512q.278-.309.435-.5t.4-.478q.24-.291.29-.349.694-.792.971-1.06a2.9,2.9,0,0,0,.751-1.275q.234-.775.385-1.462a1.865,1.865,0,0,1,.48-.99,1.917,1.917,0,0,1,1.615.547,2.855,2.855,0,0,1,.4,1.689A4.485,4.485,0,0,1,15.1,5.6a4.48,4.48,0,0,0-.605,1.858h4.441a1.619,1.619,0,0,1,1.123.448,1.372,1.372,0,0,1,.492,1.042,2.151,2.151,0,0,1-.271.944Z" transform="translate(-2.781)" fill="#4e4e4e"/>
        </g>
      </g>
    </g>
  </g>
</svg>
