<svg xmlns="http://www.w3.org/2000/svg" viewBox="0 0 219.72 56">
  <defs>
    <style>
      .cls-1 {
        fill: #383085;
      }

      .cls-2 {
        fill: #95af28;
      }

      .cls-3 {
        fill: #707070;
      }
    </style>
  </defs>
  <g id="Group_2796" data-name="Group 2796" transform="translate(-269 -359)">
    <g id="g23886" transform="translate(269 359)">
      <g id="g23884" transform="translate(0 0)">
        <path id="path23864" class="cls-1" d="M168.288,68.518V50.1a8.9,8.9,0,0,1,1.28-4.386,9.008,9.008,0,0,1,3.542-3.3,10.712,10.712,0,0,1,5.231-1.253,8.693,8.693,0,0,1,4.441,1.2A10.411,10.411,0,0,1,185.7,44.98a8.527,8.527,0,0,1,3.215-2.724,10.434,10.434,0,0,1,4.877-1.09,9.589,9.589,0,0,1,8.091,4.5,8.3,8.3,0,0,1,1.28,4.441V68.518h-4.9V51.6a7.408,7.408,0,0,0-.463-2.588,4.785,4.785,0,0,0-1.526-2.179,4.292,4.292,0,0,0-2.806-.954,4.677,4.677,0,0,0-4.059,1.689,6.708,6.708,0,0,0-1.2,4.032V68.518h-5.013V51.955a8.6,8.6,0,0,0-.545-3.16,4.357,4.357,0,0,0-1.662-2.152,4.765,4.765,0,0,0-2.752-.763q-3,.082-4,1.853a9.029,9.029,0,0,0-1.008,4.55V68.518Z" transform="translate(-168.288 -29.398)"/>
        <path id="path23866" class="cls-1" d="M187.023,55.741l13.349-7.356A8.725,8.725,0,0,0,198,46.56a8.6,8.6,0,0,0-3.9-.681,8.41,8.41,0,0,0-3.542.736,7.78,7.78,0,0,0-2.752,2.1,9.562,9.562,0,0,0-1.716,3.106,12.155,12.155,0,0,0-.572,3.76A10.6,10.6,0,0,0,186.7,59.91a8.372,8.372,0,0,0,7.628,4.468q4.087-.082,6.075-2.152a12.291,12.291,0,0,0,2.861-6.266l4.9.681a12,12,0,0,1-1.689,5.53,13.817,13.817,0,0,1-4.849,4.931A14.49,14.49,0,0,1,194,69.2a13.192,13.192,0,0,1-6.7-1.825,14.476,14.476,0,0,1-5.04-4.958,12.76,12.76,0,0,1-1.88-6.675,14.924,14.924,0,0,1,2.07-8.091,13.168,13.168,0,0,1,5.285-4.877,14.049,14.049,0,0,1,6.375-1.607,14.862,14.862,0,0,1,5.476.954,11.915,11.915,0,0,1,4.277,2.806,19.322,19.322,0,0,1,3.378,4.74L189.148,59.692Z" transform="translate(-141.063 -29.397)"/>
        <path id="path23868" class="cls-1" d="M190.168,41.738h4.686v3.133a7.089,7.089,0,0,1,1.607-1.88,7.8,7.8,0,0,1,2.343-1.335,8.729,8.729,0,0,1,3.024-.49h1.5v4.713h-1.172q-3.787,0-5.394,2.724a12.361,12.361,0,0,0-1.689,5.857V68.519h-4.9Z" transform="translate(-119.008 -29.397)"/>
        <path id="path23870" class="cls-1" d="M195.63,41.439a2.994,2.994,0,0,1,.926-2.016,2.842,2.842,0,0,1,2.043-.845,2.71,2.71,0,0,1,2.016.872,2.8,2.8,0,0,1,.872,2.1,3.18,3.18,0,0,1-.381,1.58,2.451,2.451,0,0,1-1.008,1.008,2.874,2.874,0,0,1-1.389.354,3.129,3.129,0,0,1-2.179-.845,2.888,2.888,0,0,1-.9-2.207Zm.463,32.91V47.568H201v26.78Z" transform="translate(-106.708 -35.227)"/>
        <path id="path23872" class="cls-2" d="M200.044,37.548h4.9V76.669h-4.9Z" transform="translate(-96.764 -37.548)"/>
        <path id="path23874" class="cls-2" d="M203.6,41.309h4.931V57.328q0,6.348,6.184,6.62a5.692,5.692,0,0,0,4.577-1.88,6.88,6.88,0,0,0,1.607-4.631V41.309h5.04V57.328a12.1,12.1,0,0,1-2.152,7.111,10.958,10.958,0,0,1-6.566,4.2V80.076h-5.013V68.634a12.782,12.782,0,0,1-6.1-3.514,10.378,10.378,0,0,1-2.506-6.511Z" transform="translate(-88.746 -29.076)"/>
        <path id="path23876" class="cls-2" d="M212.324,64.475V39.248h4.849v6.811h9.59v4.686h-9.59V65.429a2.566,2.566,0,0,0,.872,1.934,3.893,3.893,0,0,0,2.643.79h6.075v4.686h-6.184q-4.223,0-6.239-2.37a8.928,8.928,0,0,1-2.016-5.994Z" transform="translate(-69.105 -33.718)"/>
        <path id="path23878" class="cls-2" d="M218.481,41.439a2.994,2.994,0,0,1,.926-2.016,2.843,2.843,0,0,1,2.043-.845,2.71,2.71,0,0,1,2.016.872,2.8,2.8,0,0,1,.872,2.1,3.179,3.179,0,0,1-.382,1.58,2.45,2.45,0,0,1-1.008,1.008,2.874,2.874,0,0,1-1.389.354,3.13,3.13,0,0,1-2.18-.845,2.888,2.888,0,0,1-.9-2.207Zm.463,32.91V47.568h4.9v26.78Z" transform="translate(-55.239 -35.227)"/>
        <path id="path23880" class="cls-2" d="M222.5,54.855a15.344,15.344,0,0,1,1.689-6.484,12.292,12.292,0,0,1,4.5-4.9,14.645,14.645,0,0,1,7.083-2.125H240.7v4.686h-4.25a9.155,9.155,0,0,0-3.814.926,8.708,8.708,0,0,0-.845,15.175,8.853,8.853,0,0,0,4.876,1.308H240.7v4.686h-4.931a13.745,13.745,0,0,1-7.247-2.261A13.355,13.355,0,0,1,224,60.794a13.2,13.2,0,0,1-1.5-5.939Z" transform="translate(-46.182 -29.001)"/>
        <path id="path23882" class="cls-2" d="M228.926,63.508h13.458a.878.878,0,0,1,.381.109,6.634,6.634,0,0,0,2.207-.572,2,2,0,0,0,.981-1.825,2.209,2.209,0,0,0-.736-1.689,6.31,6.31,0,0,0-1.989-1.226,23.959,23.959,0,0,0-3.133-1.062l-3.514-1.035a16.29,16.29,0,0,1-5.721-3,6.235,6.235,0,0,1-1.934-4.659,6.48,6.48,0,0,1,1.362-4.332,7,7,0,0,1,3.433-2.234,14.968,14.968,0,0,1,4.359-.627h11.551v4.686h-12.5a3.588,3.588,0,0,0-2.234.627,2.1,2.1,0,0,0-.817,1.771,2.179,2.179,0,0,0,.845,1.526,7.3,7.3,0,0,0,1.907,1.09,23.142,23.142,0,0,0,2.4.763q1.253.3,2.942.708a15.352,15.352,0,0,1,6.7,3.351,6.986,6.986,0,0,1,2.1,5.231q-.49,6.974-8.691,6.974H228.926Z" transform="translate(-31.712 -28.964)"/>
      </g>
    </g>
  </g>
</svg>
