<svg xmlns="http://www.w3.org/2000/svg" viewBox="0 0 82.622 79.667">
  <defs>
    <style>
      .cls-1 {
        fill: #BFBFBF;
      }
    </style>
  </defs>
  <g id="Group_695" data-name="Group 695" transform="translate(-2525.161 -4036.333)">
    <path id="Path_709" data-name="Path 709" class="cls-1" d="M8.179-41.211a7.089,7.089,0,0,1,.855.043A2,2,0,0,1,9.647-41a2.055,2.055,0,0,1,.527.37,5.941,5.941,0,0,1,.57.641l21.631,27.56q-.114-1-.157-1.952t-.043-1.781V-41.211h6.754V0H34.97a3.512,3.512,0,0,1-1.511-.285,3.364,3.364,0,0,1-1.168-1.026L10.745-28.757q.086.912.128,1.81t.043,1.639V0H4.161V-41.211Zm78.6,20.606a22.842,22.842,0,0,1-1.51,8.393,19.884,19.884,0,0,1-4.247,6.683,19.229,19.229,0,0,1-6.583,4.4A22.209,22.209,0,0,1,65.921.456a22.317,22.317,0,0,1-8.536-1.582,19.349,19.349,0,0,1-6.612-4.4,19.772,19.772,0,0,1-4.261-6.683A22.842,22.842,0,0,1,45-20.606,22.842,22.842,0,0,1,46.512-29a19.772,19.772,0,0,1,4.261-6.683,19.349,19.349,0,0,1,6.612-4.4,22.317,22.317,0,0,1,8.536-1.582,22.035,22.035,0,0,1,8.521,1.6,19.5,19.5,0,0,1,6.583,4.4A19.729,19.729,0,0,1,85.272-29,22.842,22.842,0,0,1,86.783-20.606Zm-7.866,0a19.19,19.19,0,0,0-.9-6.085,12.871,12.871,0,0,0-2.579-4.574,11.1,11.1,0,0,0-4.09-2.879,14.071,14.071,0,0,0-5.429-1,14.179,14.179,0,0,0-5.444,1,11.21,11.21,0,0,0-4.118,2.879,12.922,12.922,0,0,0-2.608,4.574,18.914,18.914,0,0,0-.912,6.085,18.914,18.914,0,0,0,.912,6.085,12.774,12.774,0,0,0,2.608,4.56A11.288,11.288,0,0,0,60.477-7.1a14.179,14.179,0,0,0,5.444,1,14.071,14.071,0,0,0,5.429-1,11.182,11.182,0,0,0,4.09-2.864,12.724,12.724,0,0,0,2.579-4.56A19.19,19.19,0,0,0,78.917-20.606Z" transform="translate(2521 4078)"/>
    <path id="Path_710" data-name="Path 710" class="cls-1" d="M10.01-5.061a5.474,5.474,0,0,1-.371,2.044A4.7,4.7,0,0,1,8.6-1.414,4.666,4.666,0,0,1,6.979-.371,5.682,5.682,0,0,1,4.886,0H1.022V-10.122H4.886a5.635,5.635,0,0,1,2.093.375A4.734,4.734,0,0,1,8.6-8.7a4.658,4.658,0,0,1,1.043,1.6A5.474,5.474,0,0,1,10.01-5.061Zm-1.925,0a4.645,4.645,0,0,0-.224-1.495,3.166,3.166,0,0,0-.637-1.12,2.746,2.746,0,0,0-1-.7,3.456,3.456,0,0,0-1.333-.245H2.919V-1.5H4.886A3.456,3.456,0,0,0,6.22-1.743a2.746,2.746,0,0,0,1-.7,3.166,3.166,0,0,0,.637-1.12A4.645,4.645,0,0,0,8.085-5.061ZM33.971,0H32.515a.636.636,0,0,1-.4-.123.7.7,0,0,1-.228-.3l-.756-2.065H26.936L26.18-.427a.663.663,0,0,1-.221.294.62.62,0,0,1-.4.133H24.094L28.07-10.122H30ZM27.419-3.822h3.227L29.414-7.189q-.084-.224-.185-.529t-.2-.661q-.1.357-.193.665t-.186.539Zm27.643-6.3v1.547H52.017V0H50.134V-8.575H47.075v-1.547ZM78.071,0H76.615a.636.636,0,0,1-.4-.123.7.7,0,0,1-.228-.3l-.756-2.065H71.036L70.28-.427a.663.663,0,0,1-.22.294.62.62,0,0,1-.4.133H68.194L72.17-10.122H74.1ZM71.519-3.822h3.227L73.514-7.189q-.084-.224-.186-.529t-.2-.661q-.1.357-.192.665t-.186.539ZM9.919,17H8.463a.636.636,0,0,1-.4-.122.7.7,0,0,1-.228-.3l-.756-2.065H2.884l-.756,2.065a.663.663,0,0,1-.221.294A.62.62,0,0,1,1.5,17H.042L4.018,6.878H5.943ZM3.367,13.178H6.594L5.362,9.811q-.084-.224-.186-.528t-.2-.661q-.1.357-.193.665T4.6,9.825Zm5.852-6.3h1.519a.634.634,0,0,1,.4.119.728.728,0,0,1,.231.308l2.38,6.174q.119.3.227.661t.207.759a8.688,8.688,0,0,1,.4-1.421L16.954,7.3a.73.73,0,0,1,.224-.294.606.606,0,0,1,.4-.133H19.1L15.008,17h-1.7ZM28.3,17H26.845a.636.636,0,0,1-.4-.122.7.7,0,0,1-.228-.3l-.756-2.065H21.266l-.756,2.065a.663.663,0,0,1-.221.294.62.62,0,0,1-.4.133H18.424L22.4,6.878h1.925Zm-6.552-3.822h3.227L23.744,9.811q-.084-.224-.185-.528t-.2-.661q-.1.357-.193.665t-.186.539ZM31.9,17h-1.89V6.878H31.9Zm4.592-1.554h4.053V17H34.608V6.878h1.883ZM51.177,17H49.721a.636.636,0,0,1-.4-.122.7.7,0,0,1-.228-.3l-.756-2.065H44.142l-.756,2.065a.663.663,0,0,1-.221.294.62.62,0,0,1-.4.133H41.3L45.276,6.878H47.2Zm-6.552-3.822h3.227L46.62,9.811q-.084-.224-.185-.528t-.2-.661q-.1.357-.193.665t-.186.539ZM52.654,17V6.878h3.493a6.618,6.618,0,0,1,1.7.189A3.237,3.237,0,0,1,59,7.606a2.091,2.091,0,0,1,.661.847,2.852,2.852,0,0,1,.21,1.12,2.209,2.209,0,0,1-.105.683,1.975,1.975,0,0,1-.325.609,2.438,2.438,0,0,1-.56.514,3.386,3.386,0,0,1-.809.392q2.086.469,2.086,2.254a2.873,2.873,0,0,1-.245,1.19,2.625,2.625,0,0,1-.714.941,3.411,3.411,0,0,1-1.155.619A5.046,5.046,0,0,1,56.476,17Zm1.883-4.438V15.53h1.911a2.641,2.641,0,0,0,.879-.126,1.525,1.525,0,0,0,.567-.336,1.231,1.231,0,0,0,.308-.49,1.848,1.848,0,0,0,.095-.6,1.581,1.581,0,0,0-.1-.591,1.109,1.109,0,0,0-.329-.448,1.538,1.538,0,0,0-.574-.284,3.176,3.176,0,0,0-.847-.1Zm0-1.3h1.505a2.521,2.521,0,0,0,1.456-.35,1.266,1.266,0,0,0,.5-1.113,1.319,1.319,0,0,0-.448-1.127,2.343,2.343,0,0,0-1.4-.336h-1.61Zm9.555,4.186h4.053V17H62.209V6.878h1.883ZM76.265,6.878v1.5H71.778v2.807h3.535v1.449H71.778v2.863h4.487V17H69.881V6.878Z" transform="translate(2527 4099)"/>
  </g>
</svg>
