<svg xmlns="http://www.w3.org/2000/svg" width="35.83" height="31.96" viewBox="0 0 35.83 31.96">
  <g id="question_icon" transform="translate(-641.81 -156.87)">
    <path id="Path_761" data-name="Path 761" d="M35.347,14.257,28.1,1.7A3.43,3.43,0,0,0,25.136,0H10.645A3.415,3.415,0,0,0,7.679,1.717L.434,14.257a3.42,3.42,0,0,0,0,3.421L7.679,30.23a3.415,3.415,0,0,0,2.966,1.717H25.136A3.415,3.415,0,0,0,28.1,30.23l6.153-10.653,1.093-1.9A3.42,3.42,0,0,0,35.347,14.257Z" transform="translate(641.835 156.87)" fill="#e5669d"/>
    <path id="Path_762" data-name="Path 762" d="M114.309,74.134l-6.153,10.653A3.415,3.415,0,0,1,105.19,86.5h-2.471l-6.088-6.088,2.133-1.951-2.406-2.406.989-1-5.125-5.151L92,68.684l3.577-5.71,7.271-.273Z" transform="translate(561.78 102.326)" fill="#c7407a"/>
    <path id="Path_763" data-name="Path 763" d="M95.171,67.672a1.539,1.539,0,0,1-2.211,0,1.634,1.634,0,0,1,0-2.263,1.539,1.539,0,0,1,2.211,0,1.634,1.634,0,0,1,0,2.263Zm1.184-7.506a2.276,2.276,0,0,0-1.171,1.782l-2.524,1.21h-.13a5.183,5.183,0,0,1,2.289-4.709c2.172-1.379,3.252-2.81,3.252-4.293a3.867,3.867,0,0,0-.833-2.563,3.732,3.732,0,0,0-3.044-1.34,3.912,3.912,0,0,0-3.044,1.34,3.769,3.769,0,0,0-.937,2.615,3.359,3.359,0,0,0,.507,1.73l-2.2,1.054h-.13a6.165,6.165,0,0,1-.793-3.1,5.909,5.909,0,0,1,1.756-4.11,7.117,7.117,0,0,1,9.652,0,6.15,6.15,0,0,1,1.626,4.371C100.647,56.238,99.216,58.228,96.354,60.166Z" transform="translate(565.608 115.201)" fill="#f2f2f2"/>
  </g>
</svg>
