<svg xmlns="http://www.w3.org/2000/svg" width="19.797" height="19" viewBox="0 0 19.797 19">
  <g id="Group_860" data-name="Group 860" transform="translate(-786.862 354.553)">
    <path id="Path_845" data-name="Path 845" d="M796.8-354.553q3.57,0,7.141,0a2.622,2.622,0,0,1,2.415,1.356,2.335,2.335,0,0,1,.306,1.206q0,5.151-.005,10.3a2.6,2.6,0,0,1-1.633,2.555,3.4,3.4,0,0,1-1.129.214c-1.26.026-2.52.014-3.78.006a.422.422,0,0,0-.385.2c-.64.868-1.312,1.713-1.931,2.6a1.314,1.314,0,0,1-2.159,0c-.614-.856-1.267-1.684-1.887-2.536a.567.567,0,0,0-.528-.259c-1.211.012-2.421.01-3.632,0a2.654,2.654,0,0,1-2.7-2.3,2.4,2.4,0,0,1-.026-.394q0-5.1,0-10.2a2.626,2.626,0,0,1,2.178-2.693,3.927,3.927,0,0,1,.738-.053Q793.289-354.556,796.8-354.553Zm.052,1.81h-7.019c-.774,0-1.074.3-1.074,1.08q0,4.894,0,9.787c0,.763.3,1.061,1.063,1.061,1.491,0,2.982,0,4.474,0a.445.445,0,0,1,.407.208c.556.756,1.123,1.5,1.687,2.255.279.372.551.375.827.008.569-.757,1.141-1.512,1.7-2.275a.425.425,0,0,1,.388-.2c1.532.006,3.065,0,4.6,0,.734,0,1.038-.3,1.038-1.035q0-4.931,0-9.861c0-.725-.314-1.031-1.046-1.031Z" transform="translate(0 0)" fill="#4e4e4e"/>
    <path id="Path_846" data-name="Path 846" d="M1042.584-221.015a1.6,1.6,0,0,1,1.606,1.588,1.6,1.6,0,0,1-1.592,1.6,1.6,1.6,0,0,1-1.6-1.59A1.6,1.6,0,0,1,1042.584-221.015Z" transform="translate(-242.177 -127.27)" fill="#4e4e4e"/>
    <path id="Path_847" data-name="Path 847" d="M890.58-219.418a1.6,1.6,0,0,1-1.6,1.6,1.6,1.6,0,0,1-1.593-1.574,1.6,1.6,0,0,1,1.585-1.616A1.6,1.6,0,0,1,890.58-219.418Z" transform="translate(-95.794 -127.276)" fill="#4e4e4e"/>
    <path id="Path_848" data-name="Path 848" d="M967.344-219.43a1.607,1.607,0,0,1-1.59,1.607,1.606,1.606,0,0,1-1.612-1.585,1.608,1.608,0,0,1,1.59-1.606A1.608,1.608,0,0,1,967.344-219.43Z" transform="translate(-168.941 -127.272)" fill="#4e4e4e"/>
  </g>
</svg>
