<svg xmlns="http://www.w3.org/2000/svg" width="396" height="396" viewBox="0 0 396 396">
  <g id="subscrptions_icon" transform="translate(-1317 -245.25)">
    <g id="Group_817" data-name="Group 817">
      <path id="Path_825" data-name="Path 825" d="M1713,443.25q0,6.6-.43,13.1c-6.46,98.85-85.45,177.9-184.26,184.46q-6.6.435-13.31.44c-109.35,0-198-88.65-198-198s88.65-198,198-198S1713,333.9,1713,443.25Z" fill="#697376"/>
      <path id="Path_826" data-name="Path 826" d="M1712.57,456.35c-6.46,98.85-85.45,177.9-184.26,184.46l-87.09-87.09L1588.2,331.98Z" fill="#545c5f"/>
    </g>
    <path id="Path_827" data-name="Path 827" d="M1593,535.75V342.992a13.242,13.242,0,0,0-13.242-13.242H1420a12.035,12.035,0,0,0-12,12v8h28V543.508a13.242,13.242,0,0,0,13.242,13.242H1610a12.035,12.035,0,0,0,12-12v-9Z" fill="#f5f5f5"/>
    <g id="Group_818" data-name="Group 818">
      <rect id="Rectangle_1916" data-name="Rectangle 1916" width="28" height="6" transform="translate(1501 366)" fill="#697376"/>
      <rect id="Rectangle_1917" data-name="Rectangle 1917" width="114" height="6" transform="translate(1458 395)" fill="#697376"/>
      <rect id="Rectangle_1918" data-name="Rectangle 1918" width="114" height="6" transform="translate(1458 411)" fill="#697376"/>
      <rect id="Rectangle_1919" data-name="Rectangle 1919" width="114" height="6" transform="translate(1458 427)" fill="#697376"/>
      <rect id="Rectangle_1920" data-name="Rectangle 1920" width="114" height="6" transform="translate(1458 443)" fill="#697376"/>
      <rect id="Rectangle_1921" data-name="Rectangle 1921" width="114" height="6" transform="translate(1458 459)" fill="#697376"/>
      <rect id="Rectangle_1922" data-name="Rectangle 1922" width="114" height="6" transform="translate(1458 475)" fill="#697376"/>
      <rect id="Rectangle_1923" data-name="Rectangle 1923" width="114" height="6" transform="translate(1458 491)" fill="#697376"/>
      <rect id="Rectangle_1924" data-name="Rectangle 1924" width="24" height="6" transform="translate(1548 514)" fill="#697376"/>
    </g>
  </g>
</svg>
